<svg width="20" height="24" viewBox="0 0 20 24" fill="none" xmlns="http://www.w3.org/2000/svg">
<path fill-rule="evenodd" clip-rule="evenodd" d="M14.8571 6.79938C12.9485 5.62854 11.3268 3.902 11.3242 1.3577L11.3242 1.35161V0H8.621L8.621 1.35161L8.621 1.3577C8.61842 3.902 6.99668 5.62854 5.08814 6.79938C4.14646 7.37708 3.19354 7.77882 2.46969 8.03637C2.11003 8.16433 1.81267 8.25467 1.6092 8.31208C1.50761 8.34075 1.42984 8.36108 1.3799 8.37371C1.35494 8.38001 1.33697 8.38438 1.32649 8.38689L1.31723 8.38909L1.31657 8.38924L1.3158 8.38942L0 8.68804L0.598278 11.3242L1.91637 11.0251L1.61723 9.70699C1.91637 11.0251 1.91741 11.0248 1.91741 11.0248L1.91865 11.0246L1.9217 11.0239L1.9301 11.0219L1.9559 11.0158C1.97704 11.0107 2.00599 11.0037 2.04222 10.9945C2.11467 10.9762 2.21642 10.9495 2.34329 10.9137C2.59676 10.8422 2.95216 10.7339 3.37582 10.5832C3.67393 10.4771 4.00871 10.349 4.36769 10.1966V22.6484V24H7.07091V22.6484V17.2023H12.8743V22.6484V24H15.5775V22.6484V10.1966C15.9365 10.349 16.2713 10.4771 16.5694 10.5832C16.993 10.7339 17.3485 10.8422 17.6019 10.9137C17.7288 10.9495 17.8305 10.9762 17.903 10.9945C17.9392 11.0037 17.9682 11.0107 17.9893 11.0158L18.0151 11.0219L18.0235 11.0239L18.0266 11.0246L18.0278 11.0248C18.0278 11.0248 18.0288 11.0251 18.328 9.70699L18.0288 11.0251L19.3469 11.3242L19.9452 8.68804L18.6295 8.38945L18.6287 8.38927L18.628 8.38909L18.6187 8.38689L18.5962 8.38143L18.5653 8.37371C18.5154 8.36108 18.4376 8.34075 18.336 8.31208C18.1325 8.25467 17.8352 8.16433 17.4755 8.03637C16.7517 7.77882 15.7988 7.37708 14.8571 6.79938ZM12.8743 14.499V8.73489C11.828 8.01953 10.7711 7.07741 9.97261 5.8703C9.17408 7.07741 8.11717 8.01953 7.07091 8.73489V14.499H12.8743Z" fill="#F44336"/>
</svg>
